<svg width="280" height="70" viewBox="0 0 280 70" fill="none" xmlns="http://www.w3.org/2000/svg">
<path d="M0 18.4977C0 17.9721 0 17.7093 0.0336125 17.4892C0.227193 16.2218 1.22181 15.2272 2.48919 15.0336C2.70925 15 2.97206 15 3.49767 15H104.961C112.701 15 116.571 15 118.975 17.4044C121.379 19.8089 121.379 23.6787 121.379 31.4185V38.455C121.379 46.1947 121.379 50.0646 118.975 52.469C116.571 54.8734 112.701 54.8734 104.961 54.8734H36.3758C30.9094 54.8734 28.1762 54.8734 25.8876 54.5239C12.7068 52.5106 2.3628 42.1666 0.34957 28.9858C0 26.6972 0 23.964 0 18.4977Z" fill="#F80638"/>
<path d="M145.498 38.361C145.498 39.8621 145.264 40.988 144.795 41.7385C144.326 42.4891 143.382 42.8644 141.963 42.8644H132.446C131.484 42.8644 130.728 42.5829 130.176 42.02C129.637 41.4571 129.367 40.6889 129.367 39.7155V18.9931L129.613 18.7468H144.636C144.718 19.1455 144.771 19.5208 144.795 19.8727C144.818 20.2245 144.83 20.5528 144.83 20.8578C144.83 21.1627 144.789 21.538 144.707 21.9836C144.636 22.4175 144.531 22.8397 144.39 23.2502H137.037C136.474 23.2502 135.677 23.2384 134.645 23.215C134.645 23.6958 134.65 24.1239 134.662 24.4991C134.674 24.8627 134.68 25.279 134.68 25.7481V28.5275C135.137 28.5275 135.583 28.5275 136.017 28.5275C136.451 28.5158 136.791 28.5099 137.037 28.5099H142.578C142.684 28.8383 142.76 29.2136 142.807 29.6358C142.866 30.0462 142.895 30.3981 142.895 30.6912C142.895 30.9962 142.866 31.3539 142.807 31.7643C142.76 32.163 142.684 32.5325 142.578 32.8726H137.037C136.791 32.8726 136.451 32.8726 136.017 32.8726C135.583 32.8726 135.137 32.8667 134.68 32.855V35.9862C134.68 36.4201 134.674 36.8189 134.662 37.1824C134.65 37.546 134.645 37.9564 134.645 38.4138V38.4314C135.043 38.4197 135.448 38.4079 135.858 38.3962C136.281 38.3727 136.732 38.361 137.213 38.361H145.498Z" fill="white"/>
<path d="M163.328 38.2379C163.328 39.9501 163.052 41.1522 162.501 41.8441C161.95 42.5243 161.011 42.8644 159.686 42.8644H151.559C150.609 42.8644 149.853 42.5888 149.29 42.0376C148.727 41.4747 148.445 40.7007 148.445 39.7155V18.7644L148.692 18.5181H150.662C151.706 18.5181 152.491 18.7879 153.019 19.3273C153.559 19.8668 153.828 20.7346 153.828 21.9308V38.361C154.966 38.2789 156.057 38.2379 157.1 38.2379H163.328Z" fill="white"/>
<path d="M185 30.744C185 32.1161 184.906 33.4413 184.719 34.7196C184.531 35.9862 184.156 37.1707 183.593 38.2731C183.042 39.3637 182.209 40.343 181.095 41.2108C180.556 41.633 179.905 41.9731 179.142 42.2311C178.392 42.4891 177.618 42.6767 176.82 42.794C176.035 42.9113 175.319 42.9699 174.674 42.9699C173.173 42.9699 171.731 42.9523 170.347 42.9171C168.963 42.8937 167.509 42.8644 165.984 42.8292L165.738 42.6005V18.9227L165.984 18.694C167.497 18.6354 168.945 18.6002 170.329 18.5885C171.725 18.565 173.173 18.5533 174.674 18.5533C175.319 18.5533 176.04 18.6119 176.838 18.7292C177.635 18.8465 178.409 19.0341 179.16 19.2921C179.922 19.5501 180.567 19.8902 181.095 20.3124C182.197 21.1803 183.024 22.1654 183.575 23.2678C184.138 24.3701 184.514 25.5546 184.701 26.8212C184.901 28.076 185 29.3836 185 30.744ZM179.494 30.744C179.494 29.8293 179.436 28.9028 179.318 27.9646C179.201 27.0264 178.978 26.1644 178.65 25.3787C178.321 24.5812 177.841 23.9421 177.207 23.4613C176.574 22.9804 175.73 22.74 174.674 22.74C174.053 22.74 173.46 22.74 172.897 22.74C172.346 22.74 171.742 22.7283 171.086 22.7048V38.8008C171.742 38.7891 172.346 38.7832 172.897 38.7832C173.46 38.7832 174.053 38.7832 174.674 38.7832C175.73 38.7832 176.574 38.5428 177.207 38.062C177.841 37.5694 178.321 36.9303 178.65 36.1445C178.978 35.3471 179.201 34.4792 179.318 33.541C179.436 32.5911 179.494 31.6588 179.494 30.744Z" fill="white"/>
<path d="M129.957 50.4906C129.879 50.5063 129.796 50.5155 129.71 50.5181C129.624 50.5233 129.547 50.526 129.478 50.526C129.41 50.526 129.332 50.5233 129.246 50.5181C129.16 50.5155 129.079 50.5063 129.003 50.4906V46.2232L129.045 46.1839H131.84C131.855 46.2416 131.866 46.3058 131.874 46.3765C131.882 46.4472 131.885 46.5075 131.885 46.5572C131.885 46.6987 131.849 46.8087 131.775 46.8873C131.704 46.9659 131.579 47.0052 131.399 47.0052H130.505C130.406 47.0052 130.311 47.0052 130.22 47.0052C130.129 47.0026 130.04 47.0013 129.954 47.0013C129.956 47.0877 129.957 47.1742 129.957 47.2606C129.957 47.3444 129.957 47.4283 129.957 47.5121V47.9954C130.031 47.9928 130.096 47.9915 130.151 47.9915H131.444C131.459 48.0491 131.47 48.1146 131.475 48.1879C131.482 48.2587 131.486 48.3202 131.486 48.3726C131.486 48.4276 131.482 48.4931 131.475 48.5691C131.47 48.6451 131.459 48.7132 131.444 48.7734H130.151C130.096 48.7734 130.031 48.7721 129.957 48.7695V50.4906Z" fill="white"/>
<path d="M133.105 49.6143C133.07 49.6143 133.018 49.613 132.949 49.6104C132.881 49.6078 132.82 49.6065 132.767 49.6065L132.474 50.4945C132.416 50.5076 132.351 50.5168 132.28 50.522C132.212 50.5299 132.141 50.5338 132.067 50.5338C131.984 50.5338 131.901 50.5273 131.82 50.5142C131.741 50.5037 131.676 50.4867 131.622 50.4631L131.592 50.412L133.09 46.1839C133.184 46.1708 133.282 46.1617 133.383 46.1564C133.487 46.1486 133.579 46.1446 133.661 46.1446C133.737 46.1446 133.82 46.1486 133.912 46.1564C134.005 46.1617 134.099 46.1708 134.193 46.1839L135.672 50.4434C135.599 50.4801 135.509 50.5063 135.402 50.522C135.298 50.5404 135.208 50.5495 135.132 50.5495C135.013 50.5495 134.905 50.526 134.809 50.4788C134.713 50.429 134.635 50.3098 134.577 50.1212L134.41 49.6065C134.359 49.6065 134.301 49.6078 134.235 49.6104C134.169 49.613 134.118 49.6143 134.083 49.6143H133.105ZM133.242 48.1722L133.025 48.8284C133.074 48.8284 133.126 48.8271 133.181 48.8245C133.24 48.8219 133.285 48.8206 133.318 48.8206H133.892C133.925 48.8206 133.966 48.8219 134.014 48.8245C134.065 48.8245 134.112 48.8258 134.155 48.8284L133.969 48.2665C133.913 48.0805 133.852 47.867 133.786 47.626C133.723 47.3824 133.666 47.165 133.615 46.9738H133.577C133.529 47.1571 133.474 47.3615 133.413 47.5867C133.353 47.812 133.295 48.0072 133.242 48.1722Z" fill="white"/>
<path d="M135.86 50.1487C135.862 50.023 135.898 49.8868 135.966 49.7401C136.037 49.5908 136.122 49.4833 136.221 49.4179C136.398 49.5226 136.6 49.6156 136.825 49.6968C137.054 49.7781 137.289 49.8187 137.533 49.8187C137.715 49.816 137.871 49.7728 138 49.689C138.13 49.6025 138.194 49.4847 138.194 49.3353C138.194 49.1153 138.032 48.9489 137.708 48.8363L137.027 48.5652C136.728 48.4578 136.478 48.3124 136.278 48.129C136.078 47.943 135.977 47.6968 135.977 47.3903C135.977 47.0157 136.118 46.7039 136.399 46.4551C136.681 46.2062 137.069 46.0805 137.563 46.0778C137.839 46.0752 138.112 46.108 138.381 46.1761C138.652 46.2442 138.881 46.3228 139.069 46.4118C139.069 46.5533 139.04 46.6935 138.981 46.8323C138.923 46.9685 138.843 47.0772 138.742 47.1584C138.557 47.072 138.355 47.0013 138.137 46.9462C137.922 46.8912 137.725 46.8637 137.548 46.8637C137.37 46.8663 137.231 46.9083 137.13 46.9895C137.031 47.0707 136.981 47.1728 136.981 47.296C136.981 47.4034 137.022 47.4859 137.103 47.5435C137.187 47.5985 137.301 47.6522 137.445 47.7046L138.114 47.9679C138.439 48.0858 138.704 48.2521 138.909 48.4669C139.115 48.6817 139.217 48.9476 139.217 49.2646C139.217 49.5397 139.146 49.7767 139.004 49.9758C138.862 50.1749 138.666 50.3282 138.415 50.4356C138.164 50.543 137.874 50.5967 137.544 50.5967C137.164 50.5993 136.829 50.5521 136.54 50.4552C136.251 50.3583 136.024 50.2561 135.86 50.1487Z" fill="white"/>
<path d="M140.491 47.4571C140.491 47.3732 140.492 47.296 140.495 47.2252C140.497 47.1545 140.499 47.0746 140.499 46.9855C140.45 46.9855 140.382 46.9869 140.293 46.9895C140.205 46.9921 140.135 46.9934 140.084 46.9934H139.32C139.307 46.9201 139.298 46.8506 139.293 46.7851C139.288 46.717 139.286 46.6542 139.286 46.5965C139.286 46.5415 139.288 46.4773 139.293 46.404C139.298 46.3306 139.307 46.2573 139.32 46.1839H142.594C142.609 46.2416 142.62 46.3058 142.628 46.3765C142.636 46.4472 142.639 46.5075 142.639 46.5572C142.639 46.6987 142.603 46.8074 142.529 46.8834C142.458 46.9567 142.333 46.9934 142.153 46.9934H141.845C141.797 46.9934 141.728 46.9921 141.639 46.9895C141.553 46.9869 141.487 46.9855 141.442 46.9855C141.442 47.0746 141.443 47.1545 141.445 47.2252C141.448 47.296 141.449 47.3732 141.449 47.4571V50.4906C141.391 50.5037 141.314 50.5129 141.217 50.5181C141.124 50.5233 141.042 50.526 140.974 50.526C140.906 50.526 140.824 50.5233 140.731 50.5181C140.639 50.5129 140.559 50.5037 140.491 50.4906V47.4571Z" fill="white"/>
<path d="M145.754 49.6143C145.718 49.6143 145.666 49.613 145.598 49.6104C145.529 49.6078 145.469 49.6065 145.415 49.6065L145.123 50.4945C145.064 50.5076 145 50.5168 144.929 50.522C144.86 50.5299 144.789 50.5338 144.716 50.5338C144.632 50.5338 144.55 50.5273 144.468 50.5142C144.39 50.5037 144.324 50.4867 144.271 50.4631L144.24 50.412L145.739 46.1839C145.832 46.1708 145.93 46.1617 146.031 46.1564C146.135 46.1486 146.228 46.1446 146.309 46.1446C146.385 46.1446 146.469 46.1486 146.56 46.1564C146.654 46.1617 146.748 46.1708 146.841 46.1839L148.321 50.4434C148.247 50.4801 148.157 50.5063 148.051 50.522C147.947 50.5404 147.857 50.5495 147.781 50.5495C147.661 50.5495 147.554 50.526 147.457 50.4788C147.361 50.429 147.284 50.3098 147.225 50.1212L147.058 49.6065C147.007 49.6065 146.949 49.6078 146.883 49.6104C146.817 49.613 146.767 49.6143 146.731 49.6143H145.754ZM145.891 48.1722L145.674 48.8284C145.722 48.8284 145.774 48.8271 145.83 48.8245C145.888 48.8219 145.934 48.8206 145.967 48.8206H146.541C146.574 48.8206 146.614 48.8219 146.663 48.8245C146.713 48.8245 146.76 48.8258 146.803 48.8284L146.617 48.2665C146.561 48.0805 146.5 47.867 146.434 47.626C146.371 47.3824 146.314 47.165 146.263 46.9738H146.225C146.177 47.1571 146.123 47.3615 146.062 47.5867C146.001 47.812 145.944 48.0072 145.891 48.1722Z" fill="white"/>
<path d="M150.219 48.2351C150.181 48.1644 150.134 48.0701 150.078 47.9522C150.025 47.8317 149.972 47.7125 149.919 47.5946C149.865 47.4741 149.822 47.3785 149.789 47.3078L149.759 47.3195C149.767 47.4977 149.774 47.6941 149.782 47.909C149.792 48.1211 149.8 48.3202 149.805 48.5062C149.81 48.6896 149.812 48.8271 149.812 48.9188V50.4906C149.734 50.5063 149.656 50.5155 149.58 50.5181C149.507 50.5233 149.438 50.526 149.375 50.526C149.314 50.526 149.243 50.5233 149.162 50.5181C149.081 50.5155 149.002 50.5063 148.926 50.4906V46.2036C149.002 46.1879 149.095 46.1748 149.204 46.1643C149.313 46.1538 149.4 46.1486 149.466 46.1486C149.537 46.1486 149.627 46.1512 149.736 46.1564C149.848 46.1591 149.942 46.1682 150.018 46.1839L151.185 48.4434C151.223 48.5115 151.271 48.6097 151.329 48.7381C151.388 48.8638 151.446 48.9922 151.504 49.1231C151.563 49.2515 151.61 49.3524 151.645 49.4257L151.679 49.4179C151.669 49.2633 151.656 49.0825 151.641 48.8756C151.629 48.666 151.617 48.463 151.607 48.2665C151.597 48.0674 151.592 47.9076 151.592 47.7871V46.7026C151.592 46.4826 151.635 46.3346 151.721 46.2586C151.807 46.1826 151.944 46.1446 152.132 46.1446H152.455L152.501 46.1918V50.4788C152.422 50.4945 152.328 50.5063 152.219 50.5142C152.11 50.522 152.023 50.526 151.957 50.526C151.888 50.526 151.796 50.5233 151.679 50.5181C151.563 50.5155 151.468 50.5063 151.394 50.4906L150.219 48.2351Z" fill="white"/>
<path d="M157.242 48.3451C157.242 49.0629 157.083 49.6052 156.766 49.9719C156.45 50.336 155.941 50.5181 155.242 50.5181C154.953 50.5181 154.693 50.5155 154.462 50.5102C154.231 50.5076 153.969 50.5024 153.675 50.4945L153.633 50.4513V46.2232L153.675 46.18C153.969 46.1721 154.231 46.1656 154.462 46.1604C154.693 46.1551 154.953 46.1525 155.242 46.1525C155.936 46.1525 156.443 46.3424 156.763 46.7223C157.082 47.0995 157.242 47.6404 157.242 48.3451ZM156.265 48.3451C156.265 48.1827 156.252 48.0177 156.227 47.85C156.201 47.6824 156.153 47.5291 156.082 47.3903C156.014 47.2514 155.911 47.1401 155.774 47.0563C155.64 46.9698 155.461 46.9266 155.238 46.9266C155.111 46.9266 154.998 46.9253 154.899 46.9227C154.803 46.9201 154.697 46.9187 154.58 46.9187V49.7636C154.699 49.7636 154.807 49.7623 154.903 49.7597C155 49.7571 155.111 49.7558 155.238 49.7558C155.461 49.7558 155.64 49.7139 155.774 49.63C155.911 49.5436 156.014 49.431 156.082 49.2921C156.153 49.1533 156.201 49.0013 156.227 48.8363C156.252 48.6713 156.265 48.5075 156.265 48.3451Z" fill="white"/>
<path d="M159.337 48.3412C159.337 47.8906 159.412 47.4964 159.561 47.1584C159.713 46.8179 159.937 46.5533 160.231 46.3647C160.525 46.1735 160.887 46.0778 161.318 46.0778C161.757 46.0778 162.123 46.1721 162.417 46.3608C162.714 46.5494 162.937 46.814 163.086 47.1545C163.236 47.4924 163.311 47.888 163.311 48.3412C163.311 48.7656 163.233 49.1507 163.079 49.4964C162.927 49.8422 162.702 50.0976 162.406 50.2627L162.425 50.2784C162.64 50.4539 162.827 50.5587 162.984 50.5928C163.141 50.6268 163.275 50.6478 163.387 50.6556C163.377 50.8888 163.306 51.063 163.174 51.1782C163.045 51.2961 162.894 51.3551 162.721 51.3551C162.633 51.3551 162.532 51.338 162.421 51.304C162.312 51.2725 162.195 51.1979 162.071 51.08L161.493 50.5849C161.447 50.5928 161.403 50.5967 161.36 50.5967C160.691 50.5967 160.186 50.3924 159.847 49.9837C159.507 49.575 159.337 49.0275 159.337 48.3412ZM160.318 48.3412C160.318 48.5088 160.331 48.6817 160.356 48.8599C160.384 49.0354 160.433 49.1991 160.504 49.3511C160.575 49.503 160.677 49.6261 160.809 49.7204C160.94 49.8121 161.112 49.858 161.322 49.858C161.535 49.858 161.707 49.8121 161.839 49.7204C161.971 49.6261 162.072 49.503 162.143 49.3511C162.214 49.1991 162.263 49.0354 162.288 48.8599C162.313 48.6817 162.326 48.5088 162.326 48.3412C162.326 48.1735 162.313 48.0006 162.288 47.8225C162.263 47.6444 162.214 47.4793 162.143 47.3274C162.072 47.1755 161.971 47.0537 161.839 46.962C161.707 46.8677 161.535 46.8205 161.322 46.8205C161.112 46.8205 160.94 46.8677 160.809 46.962C160.677 47.0537 160.575 47.1755 160.504 47.3274C160.433 47.4793 160.384 47.6444 160.356 47.8225C160.331 48.0006 160.318 48.1735 160.318 48.3412Z" fill="white"/>
<path d="M167.628 48.9267C167.628 49.4585 167.472 49.8697 167.16 50.1605C166.851 50.4513 166.412 50.5967 165.844 50.5967C165.279 50.5967 164.84 50.4513 164.529 50.1605C164.217 49.8697 164.061 49.4585 164.061 48.9267V46.1918L164.107 46.1486H164.46C164.648 46.1486 164.787 46.1983 164.878 46.2979C164.972 46.3948 165.019 46.5546 165.019 46.7773V48.9227C165.019 49.2057 165.085 49.4257 165.217 49.5829C165.349 49.7374 165.558 49.8147 165.844 49.8147C166.133 49.8147 166.342 49.7374 166.472 49.5829C166.604 49.4257 166.669 49.2057 166.669 48.9227V46.1839C166.746 46.1708 166.825 46.1617 166.909 46.1564C166.995 46.1512 167.07 46.1486 167.133 46.1486C167.197 46.1486 167.275 46.1512 167.369 46.1564C167.465 46.1617 167.552 46.1735 167.628 46.1918V48.9267Z" fill="white"/>
<path d="M169.539 49.6143C169.504 49.6143 169.452 49.613 169.383 49.6104C169.315 49.6078 169.254 49.6065 169.201 49.6065L168.908 50.4945C168.85 50.5076 168.785 50.5168 168.714 50.522C168.645 50.5299 168.574 50.5338 168.501 50.5338C168.417 50.5338 168.335 50.5273 168.254 50.5142C168.175 50.5037 168.109 50.4867 168.056 50.4631L168.026 50.412L169.524 46.1839C169.618 46.1708 169.715 46.1617 169.817 46.1564C169.921 46.1486 170.013 46.1446 170.094 46.1446C170.17 46.1446 170.254 46.1486 170.345 46.1564C170.439 46.1617 170.533 46.1708 170.627 46.1839L172.106 50.4434C172.032 50.4801 171.942 50.5063 171.836 50.522C171.732 50.5404 171.642 50.5495 171.566 50.5495C171.447 50.5495 171.339 50.526 171.243 50.4788C171.146 50.429 171.069 50.3098 171.011 50.1212L170.843 49.6065C170.793 49.6065 170.734 49.6078 170.668 49.6104C170.603 49.613 170.552 49.6143 170.516 49.6143H169.539ZM169.676 48.1722L169.459 48.8284C169.507 48.8284 169.559 48.8271 169.615 48.8245C169.673 48.8219 169.719 48.8206 169.752 48.8206H170.326C170.359 48.8206 170.4 48.8219 170.448 48.8245C170.499 48.8245 170.545 48.8258 170.589 48.8284L170.402 48.2665C170.346 48.0805 170.286 47.867 170.22 47.626C170.156 47.3824 170.099 47.165 170.049 46.9738H170.011C169.962 47.1571 169.908 47.3615 169.847 47.5867C169.786 47.812 169.729 48.0072 169.676 48.1722Z" fill="white"/>
<path d="M175.522 49.6772C175.512 49.9863 175.461 50.2011 175.37 50.3216C175.278 50.4421 175.117 50.5024 174.887 50.5024H173.255C173.085 50.5024 172.95 50.4526 172.848 50.3531C172.75 50.2509 172.7 50.1094 172.7 49.9287V46.1957L172.742 46.1525H173.115C173.302 46.1525 173.439 46.201 173.525 46.2979C173.614 46.3922 173.658 46.5494 173.658 46.7694V49.7126C173.899 49.689 174.12 49.6772 174.32 49.6772H175.522Z" fill="white"/>
<path d="M176.249 46.1839C176.323 46.1708 176.406 46.1617 176.5 46.1564C176.596 46.1512 176.675 46.1486 176.736 46.1486C176.802 46.1486 176.877 46.1512 176.96 46.1564C177.046 46.1617 177.129 46.1708 177.207 46.1839V50.4906C177.129 50.5063 177.046 50.5155 176.96 50.5181C176.877 50.5233 176.802 50.526 176.736 50.526C176.675 50.526 176.596 50.5233 176.5 50.5181C176.406 50.5155 176.323 50.5063 176.249 50.4906V46.1839Z" fill="white"/>
<path d="M179.003 47.4571C179.003 47.3732 179.004 47.296 179.006 47.2252C179.009 47.1545 179.01 47.0746 179.01 46.9855C178.962 46.9855 178.894 46.9869 178.805 46.9895C178.716 46.9921 178.646 46.9934 178.596 46.9934H177.831C177.819 46.9201 177.81 46.8506 177.805 46.7851C177.8 46.717 177.797 46.6542 177.797 46.5965C177.797 46.5415 177.8 46.4773 177.805 46.404C177.81 46.3306 177.819 46.2573 177.831 46.1839H181.105C181.121 46.2416 181.132 46.3058 181.14 46.3765C181.147 46.4472 181.151 46.5075 181.151 46.5572C181.151 46.6987 181.114 46.8074 181.041 46.8834C180.97 46.9567 180.844 46.9934 180.664 46.9934H180.356C180.308 46.9934 180.24 46.9921 180.151 46.9895C180.065 46.9869 179.999 46.9855 179.953 46.9855C179.953 47.0746 179.954 47.1545 179.957 47.2252C179.96 47.296 179.961 47.3732 179.961 47.4571V50.4906C179.902 50.5037 179.825 50.5129 179.729 50.5181C179.635 50.5233 179.554 50.526 179.485 50.526C179.417 50.526 179.336 50.5233 179.242 50.5181C179.151 50.5129 179.071 50.5037 179.003 50.4906V47.4571Z" fill="white"/>
<path d="M183.796 46.1918C183.869 46.1735 183.943 46.1617 184.016 46.1564C184.092 46.1486 184.161 46.1446 184.222 46.1446C184.303 46.1446 184.383 46.1499 184.461 46.1604C184.54 46.1708 184.608 46.1866 184.667 46.2075L184.708 46.2586L183.408 49.2371V50.4906C183.332 50.5063 183.253 50.5155 183.172 50.5181C183.091 50.5233 183.015 50.526 182.944 50.526C182.883 50.526 182.807 50.5233 182.716 50.5181C182.625 50.5155 182.542 50.5063 182.469 50.4906V49.2057L181.172 46.2704C181.266 46.2259 181.365 46.1905 181.469 46.1643C181.573 46.1355 181.669 46.1211 181.758 46.1211C181.889 46.1211 181.996 46.1512 182.077 46.2114C182.158 46.2691 182.225 46.3673 182.279 46.5062L182.682 47.4846C182.745 47.6496 182.798 47.7989 182.841 47.9325C182.887 48.0635 182.925 48.1997 182.955 48.3412H182.997C183.043 48.184 183.09 48.0281 183.138 47.8736C183.186 47.719 183.242 47.5619 183.305 47.4021L183.796 46.1918Z" fill="white"/>
<path d="M38.1188 37.1837C38.1188 39.7481 37.3495 41.7621 35.8108 43.2256C34.2722 44.6767 32.0143 45.4023 29.037 45.4023C26.0598 45.4023 23.7956 44.6767 22.2445 43.2256C20.7058 41.7621 19.9365 39.7481 19.9365 37.1837V24.2178L20.1617 23.9926H22.2257C23.314 23.9926 24.1459 24.2678 24.7213 24.8182C25.3093 25.3686 25.6032 26.2943 25.6032 27.5953V37.1461C25.6032 38.3345 25.8597 39.2665 26.3726 39.942C26.898 40.6175 27.7861 40.9552 29.037 40.9552C30.313 40.9552 31.2012 40.6175 31.7015 39.942C32.2019 39.2665 32.4521 38.3345 32.4521 37.1461V24.199C32.9274 24.1114 33.4153 24.0551 33.9157 24.0301C34.416 24.0051 34.8476 23.9926 35.2104 23.9926C35.5607 23.9926 36.0172 24.0113 36.5802 24.0489C37.1556 24.0739 37.6685 24.1364 38.1188 24.2365V37.1837Z" fill="white"/>
<path d="M50.3831 35.1196C50.2455 34.8444 50.0391 34.3941 49.7639 33.7686C49.4887 33.1306 49.2135 32.4927 48.9383 31.8547C48.6631 31.2167 48.4629 30.7539 48.3378 30.4662L48.1877 30.5224C48.2378 31.4857 48.2878 32.5239 48.3378 33.6373C48.3879 34.7506 48.4254 35.7764 48.4504 36.7146C48.4879 37.6402 48.5067 38.3157 48.5067 38.7411V44.8581C48.0439 44.9457 47.5935 45.002 47.1557 45.027C46.7179 45.052 46.3176 45.0645 45.9548 45.0645C45.6045 45.0645 45.1855 45.052 44.6976 45.027C44.2098 45.002 43.7407 44.9457 43.2903 44.8581V24.3303C43.7407 24.2303 44.2911 24.149 44.9416 24.0864C45.592 24.0239 46.1049 23.9926 46.4802 23.9926C46.8555 23.9926 47.3746 24.0051 48.0376 24.0301C48.7131 24.0426 49.276 24.0989 49.7264 24.199L54.4361 33.9187C54.5487 34.1064 54.7051 34.4253 54.9052 34.8757C55.1054 35.326 55.3243 35.8201 55.562 36.358C55.7996 36.8959 56.0186 37.4026 56.2187 37.8779C56.4314 38.3408 56.5877 38.6848 56.6878 38.9099L56.8567 38.8724C56.8066 38.0593 56.7378 37.1211 56.6503 36.0578C56.5752 34.982 56.5064 33.9437 56.4439 32.943C56.3938 31.9297 56.3688 31.1166 56.3688 30.5037V27.0699C56.3688 25.8064 56.6378 24.9746 57.1757 24.5743C57.7136 24.1615 58.5267 23.9551 59.615 23.9551H61.4914L61.6978 24.2178V44.7643C61.2349 44.8644 60.6783 44.9394 60.0278 44.9895C59.3773 45.0395 58.8707 45.0645 58.5079 45.0645C58.1451 45.0645 57.6072 45.052 56.8942 45.027C56.1812 45.0145 55.6057 44.9582 55.1679 44.8581L50.3831 35.1196Z" fill="white"/>
<path d="M67.3155 24.199C67.7659 24.1114 68.2725 24.0551 68.8354 24.0301C69.4108 24.0051 69.8674 23.9926 70.2052 23.9926C70.568 23.9926 70.9995 24.0051 71.4999 24.0301C72.0128 24.0551 72.5069 24.1114 72.9823 24.199V44.8581C72.5069 44.9457 72.0128 45.002 71.4999 45.027C70.9995 45.052 70.568 45.0645 70.2052 45.0645C69.8674 45.0645 69.4108 45.052 68.8354 45.027C68.2725 45.002 67.7659 44.9457 67.3155 44.8581V24.199Z" fill="white"/>
<path d="M81.7538 31.0291C81.7538 30.6288 81.7601 30.2597 81.7726 29.922C81.7851 29.5717 81.7913 29.1839 81.7913 28.7586C81.5286 28.7586 81.1721 28.7649 80.7218 28.7774C80.2715 28.7899 79.9149 28.7962 79.6522 28.7962H76.1059C76.0183 28.3708 75.962 27.9705 75.937 27.5953C75.912 27.22 75.8995 26.876 75.8995 26.5632C75.8995 26.2505 75.912 25.8815 75.937 25.4562C75.962 25.0309 76.0183 24.6118 76.1059 24.199H92.8996C92.9872 24.5242 93.0497 24.8933 93.0872 25.3061C93.1373 25.7064 93.1623 26.0379 93.1623 26.3006C93.1623 27.1011 92.9434 27.7204 92.5056 28.1582C92.0803 28.5835 91.361 28.7962 90.3477 28.7962H89.4095C89.1593 28.7962 88.8153 28.7899 88.3775 28.7774C87.9522 28.7649 87.6207 28.7586 87.383 28.7586C87.383 29.1839 87.3893 29.5717 87.4018 29.922C87.4143 30.2597 87.4205 30.6288 87.4205 31.0291V44.8581C87.0828 44.9332 86.6262 44.9832 86.0508 45.0082C85.4753 45.0458 84.9875 45.0645 84.5872 45.0645C84.1994 45.0645 83.724 45.0458 83.1611 45.0082C82.6107 44.9832 82.1416 44.9332 81.7538 44.8581V31.0291Z" fill="white"/>
<path d="M107.897 24.2365C108.323 24.1364 108.748 24.0739 109.173 24.0489C109.611 24.0114 110.011 23.9926 110.374 23.9926C110.862 23.9926 111.331 24.0239 111.781 24.0864C112.244 24.1364 112.651 24.2178 113.001 24.3303L113.245 24.6118L106.865 38.985V44.8581C106.415 44.9457 105.946 45.002 105.458 45.027C104.97 45.052 104.539 45.0645 104.163 45.0645C103.826 45.0645 103.381 45.052 102.831 45.027C102.281 45.002 101.78 44.9457 101.33 44.8581V38.8349L94.9877 24.7056C95.5131 24.4554 96.0822 24.2553 96.6952 24.1052C97.3082 23.9551 97.8648 23.88 98.3652 23.88C99.1408 23.88 99.7725 24.0426 100.26 24.3679C100.748 24.6806 101.142 25.231 101.442 26.0191L102.869 29.6593C103.194 30.535 103.456 31.2793 103.657 31.8922C103.857 32.4927 104.032 33.1682 104.182 33.9187H104.407C104.883 32.1924 105.402 30.5975 105.965 29.1339L107.897 24.2365Z" fill="white"/>
</svg>
